<?xml version='1.0' encoding='utf-8'?>
<svg xmlns="http://www.w3.org/2000/svg" width="9.000000in" height="6.100000in" viewBox="0 0 648.000000 439.200000" version="1.2" baseProfile="tiny">
  <style transform="scale(0.072 0.072)">
    .body { fill:#f2f2f2; stroke:#333; stroke-width:28; }
    .pin { stroke:#555; stroke-width:24; fill:none; }
    .terminal { fill:none; stroke:none; }
    .pinLabel { font-family:Arial, sans-serif; font-size:116px; fill:#222; }
    .topLabel { font-family:Arial, sans-serif; font-size:85px; font-weight:bold; fill:#222; }
    .bottomLabel { font-family:Arial, sans-serif; font-size:100px; font-weight:bold; fill:#222; }
    .title { font-family:Arial, sans-serif; font-size:190px; font-weight:bold; fill:#111; }
    .subtitle { font-family:Arial, sans-serif; font-size:115px; fill:#555; }
    .section { font-family:Arial, sans-serif; font-size:145px; font-weight:bold; fill:#111; }
    .note { font-family:Arial, sans-serif; font-size:88px; fill:#8a2b2b; }
  </style>
  <g id="schematic" transform="scale(0.072 0.072)">
    <rect x="700" y="450" width="7600" height="5200" rx="90" class="body" />
    <text x="4500.0" y="1050" text-anchor="middle" class="title">PDK RED 1 EXPANDER</text>
    <text x="4500.0" y="1250" text-anchor="middle" class="subtitle">R1E • ONE-DOOR ACCESS CONTROLLER</text>
    <text x="980" y="1450" class="section">DOOR 1</text><text x="8020" y="1450" class="section" text-anchor="end">RELAY</text>
    <text x="4500.0" y="5450" text-anchor="middle" class="note">
      REFERENCE SYMBOL. VERIFY FIELD WIRING AND JUMPER PLACEMENT WITH CURRENT PDK DOCUMENTATION.
    </text>
    <line id="connector0pin" x1="0" y1="1600" x2="700" y2="1600" class="pin" /><rect id="connector0terminal" x="-3" y="1597" width="6" height="6" class="terminal" /><text x="740" y="1638" class="pinLabel">RDR +</text><line id="connector1pin" x1="0" y1="1800" x2="700" y2="1800" class="pin" /><rect id="connector1terminal" x="-3" y="1797" width="6" height="6" class="terminal" /><text x="740" y="1838" class="pinLabel">RDR -</text><line id="connector2pin" x1="0" y1="2000" x2="700" y2="2000" class="pin" /><rect id="connector2terminal" x="-3" y="1997" width="6" height="6" class="terminal" /><text x="740" y="2038" class="pinLabel">D0 / B</text><line id="connector3pin" x1="0" y1="2200" x2="700" y2="2200" class="pin" /><rect id="connector3terminal" x="-3" y="2197" width="6" height="6" class="terminal" /><text x="740" y="2238" class="pinLabel">D1 / A</text><line id="connector4pin" x1="0" y1="2400" x2="700" y2="2400" class="pin" /><rect id="connector4terminal" x="-3" y="2397" width="6" height="6" class="terminal" /><text x="740" y="2438" class="pinLabel">LED</text><line id="connector5pin" x1="0" y1="2700" x2="700" y2="2700" class="pin" /><rect id="connector5terminal" x="-3" y="2697" width="6" height="6" class="terminal" /><text x="740" y="2738" class="pinLabel">IN A</text><line id="connector6pin" x1="0" y1="2900" x2="700" y2="2900" class="pin" /><rect id="connector6terminal" x="-3" y="2897" width="6" height="6" class="terminal" /><text x="740" y="2938" class="pinLabel">IN B</text><line id="connector7pin" x1="0" y1="3100" x2="700" y2="3100" class="pin" /><rect id="connector7terminal" x="-3" y="3097" width="6" height="6" class="terminal" /><text x="740" y="3138" class="pinLabel">IN -</text><line id="connector8pin" x1="9000" y1="1600" x2="8300" y2="1600" class="pin" /><rect id="connector8terminal" x="8997" y="1597" width="6" height="6" class="terminal" /><text x="8260" y="1638" text-anchor="end" class="pinLabel">NC</text><line id="connector9pin" x1="9000" y1="1800" x2="8300" y2="1800" class="pin" /><rect id="connector9terminal" x="8997" y="1797" width="6" height="6" class="terminal" /><text x="8260" y="1838" text-anchor="end" class="pinLabel">C</text><line id="connector10pin" x1="9000" y1="2000" x2="8300" y2="2000" class="pin" /><rect id="connector10terminal" x="8997" y="1997" width="6" height="6" class="terminal" /><text x="8260" y="2038" text-anchor="end" class="pinLabel">NO</text><line id="connector11pin" x1="3200" y1="6100" x2="3200" y2="5650" class="pin" /><rect id="connector11terminal" x="3197" y="6097" width="6" height="6" class="terminal" /><text x="3200" y="5590" text-anchor="middle" class="bottomLabel">PWR +</text><line id="connector12pin" x1="3400" y1="6100" x2="3400" y2="5650" class="pin" /><rect id="connector12terminal" x="3397" y="6097" width="6" height="6" class="terminal" /><text x="3400" y="5590" text-anchor="middle" class="bottomLabel">PWR GND</text><line id="connector13pin" x1="3610" y1="6100" x2="3610" y2="5650" class="pin" /><rect id="connector13terminal" x="3607" y="6097" width="6" height="6" class="terminal" /><text x="3610" y="5590" text-anchor="middle" class="bottomLabel">BATT 1</text><line id="connector14pin" x1="3720" y1="6100" x2="3720" y2="5650" class="pin" /><rect id="connector14terminal" x="3717" y="6097" width="6" height="6" class="terminal" /><text x="3720" y="5590" text-anchor="middle" class="bottomLabel">BATT 2</text><line id="connector15pin" x1="2910" y1="0" x2="2910" y2="450" class="pin" /><rect id="connector15terminal" x="2907" y="-3" width="6" height="6" class="terminal" /><text x="2910" y="560" text-anchor="middle" class="topLabel">JMP +</text><line id="connector16pin" x1="3110" y1="0" x2="3110" y2="450" class="pin" /><rect id="connector16terminal" x="3107" y="-3" width="6" height="6" class="terminal" /><text x="3110" y="560" text-anchor="middle" class="topLabel">JMP BUS</text><line id="connector17pin" x1="3310" y1="0" x2="3310" y2="450" class="pin" /><rect id="connector17terminal" x="3307" y="-3" width="6" height="6" class="terminal" /><text x="3310" y="560" text-anchor="middle" class="topLabel">JMP -</text><line id="connector18pin" x1="1700" y1="0" x2="1700" y2="450" class="pin" /><rect id="connector18terminal" x="1697" y="-3" width="6" height="6" class="terminal" /><text x="1700" y="560" text-anchor="middle" class="topLabel">OSDP 1</text><line id="connector19pin" x1="1920" y1="0" x2="1920" y2="450" class="pin" /><rect id="connector19terminal" x="1917" y="-3" width="6" height="6" class="terminal" /><text x="1920" y="560" text-anchor="middle" class="topLabel">OSDP 2</text>
  </g>
</svg>