<?xml version="1.0" encoding="UTF-8" standalone="no"?>
<svg xmlns="http://www.w3.org/2000/svg" width="10in" height="8.333333in"
 viewBox="0 0 720.0 600.0" version="1.2" baseProfile="tiny">
 <g id="schematic">
  <rect x="90.0" y="55.0" width="540.0" height="490.0" rx="12" fill="#ed2b20" stroke="#3f1714" stroke-width="3"/><text x="360.0" y="105" text-anchor="middle" font-family="Arial" font-size="22" font-weight="bold" fill="#ffffff">PDK WiMAC Module</text><text x="360.0" y="520" text-anchor="middle" font-family="Arial" font-size="10" fill="#fff3b0">Physical numbering only; factory signal assignments are not published here.</text><line id="connector0pin" x1="0" y1="145.0000" x2="90.0" y2="145.0000" stroke="#555" stroke-width="2.2"/><rect id="connector0terminal" x="-0.2" y="144.8000" width="0.4" height="0.4" fill="none"/><text x="98.0" y="149.0000" font-family="Arial" font-size="10" fill="#ffffff">L1</text><line id="connector1pin" x1="0" y1="181.6667" x2="90.0" y2="181.6667" stroke="#555" stroke-width="2.2"/><rect id="connector1terminal" x="-0.2" y="181.4667" width="0.4" height="0.4" fill="none"/><text x="98.0" y="185.6667" font-family="Arial" font-size="10" fill="#ffffff">L2</text><line id="connector2pin" x1="0" y1="218.3333" x2="90.0" y2="218.3333" stroke="#555" stroke-width="2.2"/><rect id="connector2terminal" x="-0.2" y="218.1333" width="0.4" height="0.4" fill="none"/><text x="98.0" y="222.3333" font-family="Arial" font-size="10" fill="#ffffff">L3</text><line id="connector3pin" x1="0" y1="255.0000" x2="90.0" y2="255.0000" stroke="#555" stroke-width="2.2"/><rect id="connector3terminal" x="-0.2" y="254.8000" width="0.4" height="0.4" fill="none"/><text x="98.0" y="259.0000" font-family="Arial" font-size="10" fill="#ffffff">L4</text><line id="connector4pin" x1="0" y1="291.6667" x2="90.0" y2="291.6667" stroke="#555" stroke-width="2.2"/><rect id="connector4terminal" x="-0.2" y="291.4667" width="0.4" height="0.4" fill="none"/><text x="98.0" y="295.6667" font-family="Arial" font-size="10" fill="#ffffff">L5</text><line id="connector5pin" x1="0" y1="328.3333" x2="90.0" y2="328.3333" stroke="#555" stroke-width="2.2"/><rect id="connector5terminal" x="-0.2" y="328.1333" width="0.4" height="0.4" fill="none"/><text x="98.0" y="332.3333" font-family="Arial" font-size="10" fill="#ffffff">L6</text><line id="connector6pin" x1="0" y1="365.0000" x2="90.0" y2="365.0000" stroke="#555" stroke-width="2.2"/><rect id="connector6terminal" x="-0.2" y="364.8000" width="0.4" height="0.4" fill="none"/><text x="98.0" y="369.0000" font-family="Arial" font-size="10" fill="#ffffff">L7</text><line id="connector7pin" x1="0" y1="401.6667" x2="90.0" y2="401.6667" stroke="#555" stroke-width="2.2"/><rect id="connector7terminal" x="-0.2" y="401.4667" width="0.4" height="0.4" fill="none"/><text x="98.0" y="405.6667" font-family="Arial" font-size="10" fill="#ffffff">L8</text><line id="connector8pin" x1="0" y1="438.3333" x2="90.0" y2="438.3333" stroke="#555" stroke-width="2.2"/><rect id="connector8terminal" x="-0.2" y="438.1333" width="0.4" height="0.4" fill="none"/><text x="98.0" y="442.3333" font-family="Arial" font-size="10" fill="#ffffff">L9</text><line id="connector9pin" x1="0" y1="475.0000" x2="90.0" y2="475.0000" stroke="#555" stroke-width="2.2"/><rect id="connector9terminal" x="-0.2" y="474.8000" width="0.4" height="0.4" fill="none"/><text x="98.0" y="479.0000" font-family="Arial" font-size="10" fill="#ffffff">L10</text><line id="connector10pin" x1="720.0" y1="145.0000" x2="630.0" y2="145.0000" stroke="#555" stroke-width="2.2"/><rect id="connector10terminal" x="719.8" y="144.8000" width="0.4" height="0.4" fill="none"/><text x="622.0" y="149.0000" text-anchor="end" font-family="Arial" font-size="10" fill="#ffffff">R1</text><line id="connector11pin" x1="720.0" y1="181.6667" x2="630.0" y2="181.6667" stroke="#555" stroke-width="2.2"/><rect id="connector11terminal" x="719.8" y="181.4667" width="0.4" height="0.4" fill="none"/><text x="622.0" y="185.6667" text-anchor="end" font-family="Arial" font-size="10" fill="#ffffff">R2</text><line id="connector12pin" x1="720.0" y1="218.3333" x2="630.0" y2="218.3333" stroke="#555" stroke-width="2.2"/><rect id="connector12terminal" x="719.8" y="218.1333" width="0.4" height="0.4" fill="none"/><text x="622.0" y="222.3333" text-anchor="end" font-family="Arial" font-size="10" fill="#ffffff">R3</text><line id="connector13pin" x1="720.0" y1="255.0000" x2="630.0" y2="255.0000" stroke="#555" stroke-width="2.2"/><rect id="connector13terminal" x="719.8" y="254.8000" width="0.4" height="0.4" fill="none"/><text x="622.0" y="259.0000" text-anchor="end" font-family="Arial" font-size="10" fill="#ffffff">R4</text><line id="connector14pin" x1="720.0" y1="291.6667" x2="630.0" y2="291.6667" stroke="#555" stroke-width="2.2"/><rect id="connector14terminal" x="719.8" y="291.4667" width="0.4" height="0.4" fill="none"/><text x="622.0" y="295.6667" text-anchor="end" font-family="Arial" font-size="10" fill="#ffffff">R5</text><line id="connector15pin" x1="720.0" y1="328.3333" x2="630.0" y2="328.3333" stroke="#555" stroke-width="2.2"/><rect id="connector15terminal" x="719.8" y="328.1333" width="0.4" height="0.4" fill="none"/><text x="622.0" y="332.3333" text-anchor="end" font-family="Arial" font-size="10" fill="#ffffff">R6</text><line id="connector16pin" x1="720.0" y1="365.0000" x2="630.0" y2="365.0000" stroke="#555" stroke-width="2.2"/><rect id="connector16terminal" x="719.8" y="364.8000" width="0.4" height="0.4" fill="none"/><text x="622.0" y="369.0000" text-anchor="end" font-family="Arial" font-size="10" fill="#ffffff">R7</text><line id="connector17pin" x1="720.0" y1="401.6667" x2="630.0" y2="401.6667" stroke="#555" stroke-width="2.2"/><rect id="connector17terminal" x="719.8" y="401.4667" width="0.4" height="0.4" fill="none"/><text x="622.0" y="405.6667" text-anchor="end" font-family="Arial" font-size="10" fill="#ffffff">R8</text><line id="connector18pin" x1="720.0" y1="438.3333" x2="630.0" y2="438.3333" stroke="#555" stroke-width="2.2"/><rect id="connector18terminal" x="719.8" y="438.1333" width="0.4" height="0.4" fill="none"/><text x="622.0" y="442.3333" text-anchor="end" font-family="Arial" font-size="10" fill="#ffffff">R9</text><line id="connector19pin" x1="720.0" y1="475.0000" x2="630.0" y2="475.0000" stroke="#555" stroke-width="2.2"/><rect id="connector19terminal" x="719.8" y="474.8000" width="0.4" height="0.4" fill="none"/><text x="622.0" y="479.0000" text-anchor="end" font-family="Arial" font-size="10" fill="#ffffff">R10</text>
 </g>
</svg>