<?xml version="1.0" encoding="UTF-8" standalone="no"?>
<svg xmlns="http://www.w3.org/2000/svg" width="10in" height="8.333333in"
 viewBox="0 0 720.0 600.0" version="1.2" baseProfile="tiny">
 <g id="schematic">
  <rect x="90.0" y="55.0" width="540.0" height="490.0" rx="12" fill="#ed2b20" stroke="#3f1714" stroke-width="3"/><text x="360.0" y="105" text-anchor="middle" font-family="Arial" font-size="22" font-weight="bold" fill="#ffffff">PDK Red Series PoE Module</text><text x="360.0" y="520" text-anchor="middle" font-family="Arial" font-size="10" fill="#fff3b0">Physical numbering only; factory signal assignments are not published here.</text><line id="connector0pin" x1="0" y1="145.0000" x2="90.0" y2="145.0000" stroke="#555" stroke-width="2.2"/><rect id="connector0terminal" x="-0.2" y="144.8000" width="0.4" height="0.4" fill="none"/><text x="98.0" y="149.0000" font-family="Arial" font-size="10" fill="#ffffff">OUT 1</text><line id="connector1pin" x1="0" y1="211.0000" x2="90.0" y2="211.0000" stroke="#555" stroke-width="2.2"/><rect id="connector1terminal" x="-0.2" y="210.8000" width="0.4" height="0.4" fill="none"/><text x="98.0" y="215.0000" font-family="Arial" font-size="10" fill="#ffffff">OUT 2</text><line id="connector2pin" x1="0" y1="277.0000" x2="90.0" y2="277.0000" stroke="#555" stroke-width="2.2"/><rect id="connector2terminal" x="-0.2" y="276.8000" width="0.4" height="0.4" fill="none"/><text x="98.0" y="281.0000" font-family="Arial" font-size="10" fill="#ffffff">OUT 3</text><line id="connector3pin" x1="0" y1="343.0000" x2="90.0" y2="343.0000" stroke="#555" stroke-width="2.2"/><rect id="connector3terminal" x="-0.2" y="342.8000" width="0.4" height="0.4" fill="none"/><text x="98.0" y="347.0000" font-family="Arial" font-size="10" fill="#ffffff">OUT 4</text><line id="connector4pin" x1="0" y1="409.0000" x2="90.0" y2="409.0000" stroke="#555" stroke-width="2.2"/><rect id="connector4terminal" x="-0.2" y="408.8000" width="0.4" height="0.4" fill="none"/><text x="98.0" y="413.0000" font-family="Arial" font-size="10" fill="#ffffff">OUT 5</text><line id="connector5pin" x1="0" y1="475.0000" x2="90.0" y2="475.0000" stroke="#555" stroke-width="2.2"/><rect id="connector5terminal" x="-0.2" y="474.8000" width="0.4" height="0.4" fill="none"/><text x="98.0" y="479.0000" font-family="Arial" font-size="10" fill="#ffffff">OUT 6</text><line id="connector6pin" x1="720.0" y1="145.0000" x2="630.0" y2="145.0000" stroke="#555" stroke-width="2.2"/><rect id="connector6terminal" x="719.8" y="144.8000" width="0.4" height="0.4" fill="none"/><text x="622.0" y="149.0000" text-anchor="end" font-family="Arial" font-size="10" fill="#ffffff">IN 1</text><line id="connector7pin" x1="720.0" y1="255.0000" x2="630.0" y2="255.0000" stroke="#555" stroke-width="2.2"/><rect id="connector7terminal" x="719.8" y="254.8000" width="0.4" height="0.4" fill="none"/><text x="622.0" y="259.0000" text-anchor="end" font-family="Arial" font-size="10" fill="#ffffff">IN 2</text><line id="connector8pin" x1="720.0" y1="365.0000" x2="630.0" y2="365.0000" stroke="#555" stroke-width="2.2"/><rect id="connector8terminal" x="719.8" y="364.8000" width="0.4" height="0.4" fill="none"/><text x="622.0" y="369.0000" text-anchor="end" font-family="Arial" font-size="10" fill="#ffffff">IN 3</text><line id="connector9pin" x1="720.0" y1="475.0000" x2="630.0" y2="475.0000" stroke="#555" stroke-width="2.2"/><rect id="connector9terminal" x="719.8" y="474.8000" width="0.4" height="0.4" fill="none"/><text x="622.0" y="479.0000" text-anchor="end" font-family="Arial" font-size="10" fill="#ffffff">IN 4</text>
 </g>
</svg>