<?xml version='1.0' encoding='utf-8'?>
<svg xmlns="http://www.w3.org/2000/svg" width="9.000000in" height="6.800000in" viewBox="0 0 648.000000 489.600000" version="1.2" baseProfile="tiny">
  <style transform="scale(0.072 0.072)">
    .body { fill:#f2f2f2; stroke:#333; stroke-width:28; }
    .pin { stroke:#555; stroke-width:24; fill:none; }
    .terminal { fill:none; stroke:none; }
    .pinLabel { font-family:Arial, sans-serif; font-size:116px; fill:#222; }
    .topLabel { font-family:Arial, sans-serif; font-size:85px; font-weight:bold; fill:#222; }
    .bottomLabel { font-family:Arial, sans-serif; font-size:100px; font-weight:bold; fill:#222; }
    .title { font-family:Arial, sans-serif; font-size:190px; font-weight:bold; fill:#111; }
    .subtitle { font-family:Arial, sans-serif; font-size:115px; fill:#555; }
    .section { font-family:Arial, sans-serif; font-size:145px; font-weight:bold; fill:#111; }
    .note { font-family:Arial, sans-serif; font-size:88px; fill:#8a2b2b; }
  </style>
  <g id="schematic" transform="scale(0.072 0.072)">
    <rect x="700" y="450" width="7600" height="5900" rx="90" class="body" />
    <text x="4500.0" y="1050" text-anchor="middle" class="title">PDK RED 2 EXPANDER</text>
    <text x="4500.0" y="1250" text-anchor="middle" class="subtitle">R2E • TWO-DOOR ACCESS CONTROLLER</text>
    <text x="980" y="1380" class="section">DOOR 1</text><text x="8020" y="1380" class="section" text-anchor="end">DOOR 2</text>
    <text x="4500.0" y="6150" text-anchor="middle" class="note">
      REFERENCE SYMBOL. VERIFY FIELD WIRING AND JUMPER PLACEMENT WITH CURRENT PDK DOCUMENTATION.
    </text>
    <line id="connector0pin" x1="0" y1="1450" x2="700" y2="1450" class="pin" /><rect id="connector0terminal" x="-3" y="1447" width="6" height="6" class="terminal" /><text x="740" y="1488" class="pinLabel">RDR +</text><line id="connector1pin" x1="0" y1="1630" x2="700" y2="1630" class="pin" /><rect id="connector1terminal" x="-3" y="1627" width="6" height="6" class="terminal" /><text x="740" y="1668" class="pinLabel">RDR -</text><line id="connector2pin" x1="0" y1="1810" x2="700" y2="1810" class="pin" /><rect id="connector2terminal" x="-3" y="1807" width="6" height="6" class="terminal" /><text x="740" y="1848" class="pinLabel">D0 / B</text><line id="connector3pin" x1="0" y1="1990" x2="700" y2="1990" class="pin" /><rect id="connector3terminal" x="-3" y="1987" width="6" height="6" class="terminal" /><text x="740" y="2028" class="pinLabel">D1 / A</text><line id="connector4pin" x1="0" y1="2170" x2="700" y2="2170" class="pin" /><rect id="connector4terminal" x="-3" y="2167" width="6" height="6" class="terminal" /><text x="740" y="2208" class="pinLabel">LED</text><line id="connector5pin" x1="0" y1="2350" x2="700" y2="2350" class="pin" /><rect id="connector5terminal" x="-3" y="2347" width="6" height="6" class="terminal" /><text x="740" y="2388" class="pinLabel">IN A</text><line id="connector6pin" x1="0" y1="2530" x2="700" y2="2530" class="pin" /><rect id="connector6terminal" x="-3" y="2527" width="6" height="6" class="terminal" /><text x="740" y="2568" class="pinLabel">IN B</text><line id="connector7pin" x1="0" y1="2710" x2="700" y2="2710" class="pin" /><rect id="connector7terminal" x="-3" y="2707" width="6" height="6" class="terminal" /><text x="740" y="2748" class="pinLabel">IN -</text><line id="connector8pin" x1="0" y1="2890" x2="700" y2="2890" class="pin" /><rect id="connector8terminal" x="-3" y="2887" width="6" height="6" class="terminal" /><text x="740" y="2928" class="pinLabel">NC</text><line id="connector9pin" x1="0" y1="3070" x2="700" y2="3070" class="pin" /><rect id="connector9terminal" x="-3" y="3067" width="6" height="6" class="terminal" /><text x="740" y="3108" class="pinLabel">C</text><line id="connector10pin" x1="0" y1="3250" x2="700" y2="3250" class="pin" /><rect id="connector10terminal" x="-3" y="3247" width="6" height="6" class="terminal" /><text x="740" y="3288" class="pinLabel">NO</text><line id="connector11pin" x1="9000" y1="1450" x2="8300" y2="1450" class="pin" /><rect id="connector11terminal" x="8997" y="1447" width="6" height="6" class="terminal" /><text x="8260" y="1488" text-anchor="end" class="pinLabel">RDR +</text><line id="connector12pin" x1="9000" y1="1630" x2="8300" y2="1630" class="pin" /><rect id="connector12terminal" x="8997" y="1627" width="6" height="6" class="terminal" /><text x="8260" y="1668" text-anchor="end" class="pinLabel">RDR -</text><line id="connector13pin" x1="9000" y1="1810" x2="8300" y2="1810" class="pin" /><rect id="connector13terminal" x="8997" y="1807" width="6" height="6" class="terminal" /><text x="8260" y="1848" text-anchor="end" class="pinLabel">D0 / B</text><line id="connector14pin" x1="9000" y1="1990" x2="8300" y2="1990" class="pin" /><rect id="connector14terminal" x="8997" y="1987" width="6" height="6" class="terminal" /><text x="8260" y="2028" text-anchor="end" class="pinLabel">D1 / A</text><line id="connector15pin" x1="9000" y1="2170" x2="8300" y2="2170" class="pin" /><rect id="connector15terminal" x="8997" y="2167" width="6" height="6" class="terminal" /><text x="8260" y="2208" text-anchor="end" class="pinLabel">LED</text><line id="connector16pin" x1="9000" y1="2350" x2="8300" y2="2350" class="pin" /><rect id="connector16terminal" x="8997" y="2347" width="6" height="6" class="terminal" /><text x="8260" y="2388" text-anchor="end" class="pinLabel">IN A</text><line id="connector17pin" x1="9000" y1="2530" x2="8300" y2="2530" class="pin" /><rect id="connector17terminal" x="8997" y="2527" width="6" height="6" class="terminal" /><text x="8260" y="2568" text-anchor="end" class="pinLabel">IN B</text><line id="connector18pin" x1="9000" y1="2710" x2="8300" y2="2710" class="pin" /><rect id="connector18terminal" x="8997" y="2707" width="6" height="6" class="terminal" /><text x="8260" y="2748" text-anchor="end" class="pinLabel">IN -</text><line id="connector19pin" x1="9000" y1="2890" x2="8300" y2="2890" class="pin" /><rect id="connector19terminal" x="8997" y="2887" width="6" height="6" class="terminal" /><text x="8260" y="2928" text-anchor="end" class="pinLabel">NC</text><line id="connector20pin" x1="9000" y1="3070" x2="8300" y2="3070" class="pin" /><rect id="connector20terminal" x="8997" y="3067" width="6" height="6" class="terminal" /><text x="8260" y="3108" text-anchor="end" class="pinLabel">C</text><line id="connector21pin" x1="9000" y1="3250" x2="8300" y2="3250" class="pin" /><rect id="connector21terminal" x="8997" y="3247" width="6" height="6" class="terminal" /><text x="8260" y="3288" text-anchor="end" class="pinLabel">NO</text><line id="connector22pin" x1="1450" y1="0" x2="1450" y2="450" class="pin" /><rect id="connector22terminal" x="1447" y="-3" width="6" height="6" class="terminal" /><text x="1450" y="560" text-anchor="middle" class="topLabel">D1 JMP +</text><line id="connector23pin" x1="1700" y1="0" x2="1700" y2="450" class="pin" /><rect id="connector23terminal" x="1697" y="-3" width="6" height="6" class="terminal" /><text x="1700" y="560" text-anchor="middle" class="topLabel">D1 JMP BUS</text><line id="connector24pin" x1="1950" y1="0" x2="1950" y2="450" class="pin" /><rect id="connector24terminal" x="1947" y="-3" width="6" height="6" class="terminal" /><text x="1950" y="560" text-anchor="middle" class="topLabel">D1 JMP -</text><line id="connector25pin" x1="5750" y1="0" x2="5750" y2="450" class="pin" /><rect id="connector25terminal" x="5747" y="-3" width="6" height="6" class="terminal" /><text x="5750" y="560" text-anchor="middle" class="topLabel">D2 JMP +</text><line id="connector26pin" x1="6000" y1="0" x2="6000" y2="450" class="pin" /><rect id="connector26terminal" x="5997" y="-3" width="6" height="6" class="terminal" /><text x="6000" y="560" text-anchor="middle" class="topLabel">D2 JMP BUS</text><line id="connector27pin" x1="6250" y1="0" x2="6250" y2="450" class="pin" /><rect id="connector27terminal" x="6247" y="-3" width="6" height="6" class="terminal" /><text x="6250" y="560" text-anchor="middle" class="topLabel">D2 JMP -</text><line id="connector28pin" x1="2350" y1="0" x2="2350" y2="450" class="pin" /><rect id="connector28terminal" x="2347" y="-3" width="6" height="6" class="terminal" /><text x="2350" y="560" text-anchor="middle" class="topLabel">D1 OSDP 1</text><line id="connector29pin" x1="2570" y1="0" x2="2570" y2="450" class="pin" /><rect id="connector29terminal" x="2567" y="-3" width="6" height="6" class="terminal" /><text x="2570" y="560" text-anchor="middle" class="topLabel">D1 OSDP 2</text><line id="connector30pin" x1="6650" y1="0" x2="6650" y2="450" class="pin" /><rect id="connector30terminal" x="6647" y="-3" width="6" height="6" class="terminal" /><text x="6650" y="560" text-anchor="middle" class="topLabel">D2 OSDP 1</text><line id="connector31pin" x1="6870" y1="0" x2="6870" y2="450" class="pin" /><rect id="connector31terminal" x="6867" y="-3" width="6" height="6" class="terminal" /><text x="6870" y="560" text-anchor="middle" class="topLabel">D2 OSDP 2</text><line id="connector32pin" x1="5950" y1="6800" x2="5950" y2="6350" class="pin" /><rect id="connector32terminal" x="5947" y="6797" width="6" height="6" class="terminal" /><text x="5950" y="6290" text-anchor="middle" class="bottomLabel">PWR +</text><line id="connector33pin" x1="6150" y1="6800" x2="6150" y2="6350" class="pin" /><rect id="connector33terminal" x="6147" y="6797" width="6" height="6" class="terminal" /><text x="6150" y="6290" text-anchor="middle" class="bottomLabel">PWR GND</text><line id="connector34pin" x1="7000" y1="6800" x2="7000" y2="6350" class="pin" /><rect id="connector34terminal" x="6997" y="6797" width="6" height="6" class="terminal" /><text x="7000" y="6290" text-anchor="middle" class="bottomLabel">BATT 1</text><line id="connector35pin" x1="7450" y1="6800" x2="7450" y2="6350" class="pin" /><rect id="connector35terminal" x="7447" y="6797" width="6" height="6" class="terminal" /><text x="7450" y="6290" text-anchor="middle" class="bottomLabel">BATT 2</text>
  </g>
</svg>