<?xml version='1.0' encoding='utf-8'?>
<svg xmlns="http://www.w3.org/2000/svg" width="3.051827in" height="2.730184in" viewBox="0 0 219.731544 196.573248" version="1.2" baseProfile="tiny">
  <g id="silkscreen" transform="scale(0.0391419687561 0.037117655567)">
    <rect x="15" y="15" width="5583.707" height="5265.950" rx="35" fill="none" stroke="#ffffff" stroke-width="18" />
    <text x="2806.854" y="2383.178" text-anchor="middle" font-family="Arial, sans-serif" font-size="210" font-weight="bold" fill="#ffffff">PDK R4E</text>
    <text x="2806.854" y="2753.894" text-anchor="middle" font-family="Arial, sans-serif" font-size="115" fill="#ffffff">REFERENCE-ONLY ESTIMATED FOOTPRINT</text>
    <text x="2806.854" y="3071.651" text-anchor="middle" font-family="Arial, sans-serif" font-size="105" fill="#ffffff">NOT FOR PCB FABRICATION</text>
  </g>
  <g id="copper1" transform="scale(0.0391419687561 0.037117655567)">
    <g id="copper0">
      <circle id="connector0pin" cx="344.24" cy="121.81" r="36" fill="none" stroke="#f7bd13" stroke-width="24" /><circle id="connector1pin" cx="344.24" cy="323.05" r="36" fill="none" stroke="#f7bd13" stroke-width="24" /><circle id="connector2pin" cx="344.24" cy="519.00" r="36" fill="none" stroke="#f7bd13" stroke-width="24" /><circle id="connector3pin" cx="344.24" cy="720.25" r="36" fill="none" stroke="#f7bd13" stroke-width="24" /><circle id="connector4pin" cx="344.24" cy="921.50" r="36" fill="none" stroke="#f7bd13" stroke-width="24" /><circle id="connector5pin" cx="344.24" cy="1181.00" r="36" fill="none" stroke="#f7bd13" stroke-width="24" /><circle id="connector6pin" cx="344.24" cy="1376.95" r="36" fill="none" stroke="#f7bd13" stroke-width="24" /><circle id="connector7pin" cx="344.24" cy="1578.19" r="36" fill="none" stroke="#f7bd13" stroke-width="24" /><circle id="connector8pin" cx="344.24" cy="1864.17" r="36" fill="none" stroke="#f7bd13" stroke-width="24" /><circle id="connector9pin" cx="344.24" cy="2065.42" r="36" fill="none" stroke="#f7bd13" stroke-width="24" /><circle id="connector10pin" cx="344.24" cy="2261.37" r="36" fill="none" stroke="#f7bd13" stroke-width="24" /><circle id="connector11pin" cx="344.24" cy="2547.35" r="36" fill="none" stroke="#f7bd13" stroke-width="24" /><circle id="connector12pin" cx="344.24" cy="2748.60" r="36" fill="none" stroke="#f7bd13" stroke-width="24" /><circle id="connector13pin" cx="344.24" cy="2949.84" r="36" fill="none" stroke="#f7bd13" stroke-width="24" /><circle id="connector14pin" cx="344.24" cy="3151.09" r="36" fill="none" stroke="#f7bd13" stroke-width="24" /><circle id="connector15pin" cx="344.24" cy="3352.34" r="36" fill="none" stroke="#f7bd13" stroke-width="24" /><circle id="connector16pin" cx="344.24" cy="3611.84" r="36" fill="none" stroke="#f7bd13" stroke-width="24" /><circle id="connector17pin" cx="344.24" cy="3813.08" r="36" fill="none" stroke="#f7bd13" stroke-width="24" /><circle id="connector18pin" cx="344.24" cy="4014.33" r="36" fill="none" stroke="#f7bd13" stroke-width="24" /><circle id="connector19pin" cx="344.24" cy="4284.42" r="36" fill="none" stroke="#f7bd13" stroke-width="24" /><circle id="connector20pin" cx="344.24" cy="4485.67" r="36" fill="none" stroke="#f7bd13" stroke-width="24" /><circle id="connector21pin" cx="344.24" cy="4692.21" r="36" fill="none" stroke="#f7bd13" stroke-width="24" /><circle id="connector22pin" cx="5248.29" cy="2261.37" r="36" fill="none" stroke="#f7bd13" stroke-width="24" /><circle id="connector23pin" cx="5248.29" cy="2060.12" r="36" fill="none" stroke="#f7bd13" stroke-width="24" /><circle id="connector24pin" cx="5248.29" cy="1858.88" r="36" fill="none" stroke="#f7bd13" stroke-width="24" /><circle id="connector25pin" cx="5248.29" cy="1662.93" r="36" fill="none" stroke="#f7bd13" stroke-width="24" /><circle id="connector26pin" cx="5248.29" cy="1461.68" r="36" fill="none" stroke="#f7bd13" stroke-width="24" /><circle id="connector27pin" cx="5248.29" cy="1186.29" r="36" fill="none" stroke="#f7bd13" stroke-width="24" /><circle id="connector28pin" cx="5248.29" cy="985.05" r="36" fill="none" stroke="#f7bd13" stroke-width="24" /><circle id="connector29pin" cx="5248.29" cy="789.10" r="36" fill="none" stroke="#f7bd13" stroke-width="24" /><circle id="connector30pin" cx="5248.29" cy="116.51" r="36" fill="none" stroke="#f7bd13" stroke-width="24" /><circle id="connector31pin" cx="5248.29" cy="323.05" r="36" fill="none" stroke="#f7bd13" stroke-width="24" /><circle id="connector32pin" cx="5248.29" cy="519.00" r="36" fill="none" stroke="#f7bd13" stroke-width="24" /><circle id="connector33pin" cx="5248.29" cy="4697.51" r="36" fill="none" stroke="#f7bd13" stroke-width="24" /><circle id="connector34pin" cx="5248.29" cy="4496.26" r="36" fill="none" stroke="#f7bd13" stroke-width="24" /><circle id="connector35pin" cx="5248.29" cy="4295.02" r="36" fill="none" stroke="#f7bd13" stroke-width="24" /><circle id="connector36pin" cx="5248.29" cy="4093.77" r="36" fill="none" stroke="#f7bd13" stroke-width="24" /><circle id="connector37pin" cx="5248.29" cy="3892.52" r="36" fill="none" stroke="#f7bd13" stroke-width="24" /><circle id="connector38pin" cx="5248.29" cy="3611.84" r="36" fill="none" stroke="#f7bd13" stroke-width="24" /><circle id="connector39pin" cx="5248.29" cy="3415.89" r="36" fill="none" stroke="#f7bd13" stroke-width="24" /><circle id="connector40pin" cx="5248.29" cy="3214.64" r="36" fill="none" stroke="#f7bd13" stroke-width="24" /><circle id="connector41pin" cx="5248.29" cy="2547.35" r="36" fill="none" stroke="#f7bd13" stroke-width="24" /><circle id="connector42pin" cx="5248.29" cy="2748.60" r="36" fill="none" stroke="#f7bd13" stroke-width="24" /><circle id="connector43pin" cx="5248.29" cy="2949.84" r="36" fill="none" stroke="#f7bd13" stroke-width="24" /><circle id="connector44pin" cx="1260.44" cy="2060.12" r="36" fill="none" stroke="#f7bd13" stroke-width="24" /><circle id="connector45pin" cx="1260.44" cy="2197.82" r="36" fill="none" stroke="#f7bd13" stroke-width="24" /><circle id="connector46pin" cx="1260.44" cy="2335.51" r="36" fill="none" stroke="#f7bd13" stroke-width="24" /><circle id="connector47pin" cx="1260.44" cy="4353.27" r="36" fill="none" stroke="#f7bd13" stroke-width="24" /><circle id="connector48pin" cx="1260.44" cy="4485.67" r="36" fill="none" stroke="#f7bd13" stroke-width="24" /><circle id="connector49pin" cx="1260.44" cy="4618.07" r="36" fill="none" stroke="#f7bd13" stroke-width="24" /><circle id="connector50pin" cx="4316.20" cy="873.83" r="36" fill="none" stroke="#f7bd13" stroke-width="24" /><circle id="connector51pin" cx="4316.20" cy="746.73" r="36" fill="none" stroke="#f7bd13" stroke-width="24" /><circle id="connector52pin" cx="4316.20" cy="619.63" r="36" fill="none" stroke="#f7bd13" stroke-width="24" /><circle id="connector53pin" cx="4316.20" cy="2881.00" r="36" fill="none" stroke="#f7bd13" stroke-width="24" /><circle id="connector54pin" cx="4316.20" cy="2753.89" r="36" fill="none" stroke="#f7bd13" stroke-width="24" /><circle id="connector55pin" cx="4316.20" cy="2626.79" r="36" fill="none" stroke="#f7bd13" stroke-width="24" /><circle id="connector56pin" cx="1265.73" cy="534.89" r="36" fill="none" stroke="#f7bd13" stroke-width="24" /><circle id="connector57pin" cx="1265.73" cy="672.59" r="36" fill="none" stroke="#f7bd13" stroke-width="24" /><circle id="connector58pin" cx="1265.73" cy="2944.55" r="36" fill="none" stroke="#f7bd13" stroke-width="24" /><circle id="connector59pin" cx="1265.73" cy="3082.24" r="36" fill="none" stroke="#f7bd13" stroke-width="24" /><circle id="connector60pin" cx="4321.50" cy="1911.84" r="36" fill="none" stroke="#f7bd13" stroke-width="24" /><circle id="connector61pin" cx="4321.50" cy="2044.24" r="36" fill="none" stroke="#f7bd13" stroke-width="24" /><circle id="connector62pin" cx="4321.50" cy="3495.33" r="36" fill="none" stroke="#f7bd13" stroke-width="24" /><circle id="connector63pin" cx="4321.50" cy="3627.73" r="36" fill="none" stroke="#f7bd13" stroke-width="24" /><circle id="connector64pin" cx="5248.29" cy="5158.26" r="36" fill="none" stroke="#f7bd13" stroke-width="24" /><circle id="connector65pin" cx="5248.29" cy="4962.31" r="36" fill="none" stroke="#f7bd13" stroke-width="24" /><circle id="connector66pin" cx="990.34" cy="5200.62" r="36" fill="none" stroke="#f7bd13" stroke-width="24" /><circle id="connector67pin" cx="1106.85" cy="5200.62" r="36" fill="none" stroke="#f7bd13" stroke-width="24" />
    </g>
  </g>
</svg>