<?xml version='1.0' encoding='utf-8'?>
<svg xmlns="http://www.w3.org/2000/svg" width="3.089503in" height="2.819162in" viewBox="0 0 222.444216 202.979664" version="1.2" baseProfile="tiny">
  <g id="silkscreen" transform="scale(0.0397221814286 0.0378484177497)">
    <rect x="15" y="15" width="5570.000" height="5332.963" rx="35" fill="none" stroke="#ffffff" stroke-width="18" />
    <text x="2800.000" y="2359.704" text-anchor="middle" font-family="Arial, sans-serif" font-size="210" font-weight="bold" fill="#ffffff">PDK AUX 8</text>
    <text x="2800.000" y="2735.111" text-anchor="middle" font-family="Arial, sans-serif" font-size="112" fill="#ffffff">ESTIMATED REFERENCE FOOTPRINT</text>
    <text x="2800.000" y="3056.889" text-anchor="middle" font-family="Arial, sans-serif" font-size="102" fill="#ffffff">NOT FOR PCB FABRICATION</text>
  </g>
  <g id="copper1" transform="scale(0.0397221814286 0.0378484177497)">
    <g id="copper0">
      <circle id="connector0pin" cx="377.78" cy="103.70" r="34" fill="none" stroke="#f7bd13" stroke-width="22" /><circle id="connector1pin" cx="377.78" cy="303.70" r="34" fill="none" stroke="#f7bd13" stroke-width="22" /><circle id="connector2pin" cx="377.78" cy="503.70" r="34" fill="none" stroke="#f7bd13" stroke-width="22" /><circle id="connector3pin" cx="377.78" cy="740.74" r="34" fill="none" stroke="#f7bd13" stroke-width="22" /><circle id="connector4pin" cx="377.78" cy="940.74" r="34" fill="none" stroke="#f7bd13" stroke-width="22" /><circle id="connector5pin" cx="377.78" cy="1140.74" r="34" fill="none" stroke="#f7bd13" stroke-width="22" /><circle id="connector6pin" cx="377.78" cy="1385.19" r="34" fill="none" stroke="#f7bd13" stroke-width="22" /><circle id="connector7pin" cx="377.78" cy="1585.19" r="34" fill="none" stroke="#f7bd13" stroke-width="22" /><circle id="connector8pin" cx="377.78" cy="1785.19" r="34" fill="none" stroke="#f7bd13" stroke-width="22" /><circle id="connector9pin" cx="377.78" cy="2022.22" r="34" fill="none" stroke="#f7bd13" stroke-width="22" /><circle id="connector10pin" cx="377.78" cy="2222.22" r="34" fill="none" stroke="#f7bd13" stroke-width="22" /><circle id="connector11pin" cx="377.78" cy="2422.22" r="34" fill="none" stroke="#f7bd13" stroke-width="22" /><circle id="connector12pin" cx="377.78" cy="2666.67" r="34" fill="none" stroke="#f7bd13" stroke-width="22" /><circle id="connector13pin" cx="377.78" cy="2866.67" r="34" fill="none" stroke="#f7bd13" stroke-width="22" /><circle id="connector14pin" cx="377.78" cy="3066.67" r="34" fill="none" stroke="#f7bd13" stroke-width="22" /><circle id="connector15pin" cx="377.78" cy="3311.11" r="34" fill="none" stroke="#f7bd13" stroke-width="22" /><circle id="connector16pin" cx="377.78" cy="3511.11" r="34" fill="none" stroke="#f7bd13" stroke-width="22" /><circle id="connector17pin" cx="377.78" cy="3711.11" r="34" fill="none" stroke="#f7bd13" stroke-width="22" /><circle id="connector18pin" cx="377.78" cy="3955.56" r="34" fill="none" stroke="#f7bd13" stroke-width="22" /><circle id="connector19pin" cx="377.78" cy="4155.56" r="34" fill="none" stroke="#f7bd13" stroke-width="22" /><circle id="connector20pin" cx="377.78" cy="4355.56" r="34" fill="none" stroke="#f7bd13" stroke-width="22" /><circle id="connector21pin" cx="377.78" cy="4600.00" r="34" fill="none" stroke="#f7bd13" stroke-width="22" /><circle id="connector22pin" cx="377.78" cy="4800.00" r="34" fill="none" stroke="#f7bd13" stroke-width="22" /><circle id="connector23pin" cx="377.78" cy="5000.00" r="34" fill="none" stroke="#f7bd13" stroke-width="22" /><circle id="connector24pin" cx="5229.63" cy="740.74" r="34" fill="none" stroke="#f7bd13" stroke-width="22" /><circle id="connector25pin" cx="5229.63" cy="940.74" r="34" fill="none" stroke="#f7bd13" stroke-width="22" /><circle id="connector26pin" cx="5229.63" cy="1140.74" r="34" fill="none" stroke="#f7bd13" stroke-width="22" /><circle id="connector27pin" cx="5229.63" cy="103.70" r="34" fill="none" stroke="#f7bd13" stroke-width="22" /><circle id="connector28pin" cx="5229.63" cy="303.70" r="34" fill="none" stroke="#f7bd13" stroke-width="22" /><circle id="connector29pin" cx="5229.63" cy="503.70" r="34" fill="none" stroke="#f7bd13" stroke-width="22" /><circle id="connector30pin" cx="5229.63" cy="2022.22" r="34" fill="none" stroke="#f7bd13" stroke-width="22" /><circle id="connector31pin" cx="5229.63" cy="2222.22" r="34" fill="none" stroke="#f7bd13" stroke-width="22" /><circle id="connector32pin" cx="5229.63" cy="2422.22" r="34" fill="none" stroke="#f7bd13" stroke-width="22" /><circle id="connector33pin" cx="5229.63" cy="1385.19" r="34" fill="none" stroke="#f7bd13" stroke-width="22" /><circle id="connector34pin" cx="5229.63" cy="1585.19" r="34" fill="none" stroke="#f7bd13" stroke-width="22" /><circle id="connector35pin" cx="5229.63" cy="1785.19" r="34" fill="none" stroke="#f7bd13" stroke-width="22" /><circle id="connector36pin" cx="5229.63" cy="3311.11" r="34" fill="none" stroke="#f7bd13" stroke-width="22" /><circle id="connector37pin" cx="5229.63" cy="3511.11" r="34" fill="none" stroke="#f7bd13" stroke-width="22" /><circle id="connector38pin" cx="5229.63" cy="3711.11" r="34" fill="none" stroke="#f7bd13" stroke-width="22" /><circle id="connector39pin" cx="5229.63" cy="2666.67" r="34" fill="none" stroke="#f7bd13" stroke-width="22" /><circle id="connector40pin" cx="5229.63" cy="2866.67" r="34" fill="none" stroke="#f7bd13" stroke-width="22" /><circle id="connector41pin" cx="5229.63" cy="3066.67" r="34" fill="none" stroke="#f7bd13" stroke-width="22" /><circle id="connector42pin" cx="5229.63" cy="4600.00" r="34" fill="none" stroke="#f7bd13" stroke-width="22" /><circle id="connector43pin" cx="5229.63" cy="4800.00" r="34" fill="none" stroke="#f7bd13" stroke-width="22" /><circle id="connector44pin" cx="5229.63" cy="5000.00" r="34" fill="none" stroke="#f7bd13" stroke-width="22" /><circle id="connector45pin" cx="5229.63" cy="3955.56" r="34" fill="none" stroke="#f7bd13" stroke-width="22" /><circle id="connector46pin" cx="5229.63" cy="4155.56" r="34" fill="none" stroke="#f7bd13" stroke-width="22" /><circle id="connector47pin" cx="5229.63" cy="4355.56" r="34" fill="none" stroke="#f7bd13" stroke-width="22" /><circle id="connector48pin" cx="1362.96" cy="570.37" r="34" fill="none" stroke="#f7bd13" stroke-width="22" /><circle id="connector49pin" cx="1362.96" cy="711.11" r="34" fill="none" stroke="#f7bd13" stroke-width="22" /><circle id="connector50pin" cx="1362.96" cy="851.85" r="34" fill="none" stroke="#f7bd13" stroke-width="22" /><circle id="connector51pin" cx="1362.96" cy="1814.81" r="34" fill="none" stroke="#f7bd13" stroke-width="22" /><circle id="connector52pin" cx="1362.96" cy="1955.56" r="34" fill="none" stroke="#f7bd13" stroke-width="22" /><circle id="connector53pin" cx="1362.96" cy="2096.30" r="34" fill="none" stroke="#f7bd13" stroke-width="22" /><circle id="connector54pin" cx="1362.96" cy="3044.44" r="34" fill="none" stroke="#f7bd13" stroke-width="22" /><circle id="connector55pin" cx="1362.96" cy="3185.19" r="34" fill="none" stroke="#f7bd13" stroke-width="22" /><circle id="connector56pin" cx="1362.96" cy="3325.93" r="34" fill="none" stroke="#f7bd13" stroke-width="22" /><circle id="connector57pin" cx="1362.96" cy="3896.30" r="34" fill="none" stroke="#f7bd13" stroke-width="22" /><circle id="connector58pin" cx="1362.96" cy="4037.04" r="34" fill="none" stroke="#f7bd13" stroke-width="22" /><circle id="connector59pin" cx="1362.96" cy="4177.78" r="34" fill="none" stroke="#f7bd13" stroke-width="22" /><circle id="connector60pin" cx="4325.93" cy="570.37" r="34" fill="none" stroke="#f7bd13" stroke-width="22" /><circle id="connector61pin" cx="4325.93" cy="711.11" r="34" fill="none" stroke="#f7bd13" stroke-width="22" /><circle id="connector62pin" cx="4325.93" cy="851.85" r="34" fill="none" stroke="#f7bd13" stroke-width="22" /><circle id="connector63pin" cx="4325.93" cy="1814.81" r="34" fill="none" stroke="#f7bd13" stroke-width="22" /><circle id="connector64pin" cx="4325.93" cy="1955.56" r="34" fill="none" stroke="#f7bd13" stroke-width="22" /><circle id="connector65pin" cx="4325.93" cy="2096.30" r="34" fill="none" stroke="#f7bd13" stroke-width="22" /><circle id="connector66pin" cx="4325.93" cy="3044.44" r="34" fill="none" stroke="#f7bd13" stroke-width="22" /><circle id="connector67pin" cx="4325.93" cy="3185.19" r="34" fill="none" stroke="#f7bd13" stroke-width="22" /><circle id="connector68pin" cx="4325.93" cy="3325.93" r="34" fill="none" stroke="#f7bd13" stroke-width="22" /><circle id="connector69pin" cx="4325.93" cy="4288.89" r="34" fill="none" stroke="#f7bd13" stroke-width="22" /><circle id="connector70pin" cx="4325.93" cy="4429.63" r="34" fill="none" stroke="#f7bd13" stroke-width="22" /><circle id="connector71pin" cx="4325.93" cy="4570.37" r="34" fill="none" stroke="#f7bd13" stroke-width="22" /><circle id="connector72pin" cx="1059.26" cy="5022.22" r="34" fill="none" stroke="#f7bd13" stroke-width="22" /><circle id="connector73pin" cx="1274.07" cy="5022.22" r="34" fill="none" stroke="#f7bd13" stroke-width="22" /><circle id="connector74pin" cx="2148.15" cy="5214.81" r="34" fill="none" stroke="#f7bd13" stroke-width="22" /><circle id="connector75pin" cx="2274.07" cy="5214.81" r="34" fill="none" stroke="#f7bd13" stroke-width="22" />
    </g>
  </g>
</svg>